Normalized EMG Linear Envelopes
nRows=167
nColumns=4

endheader
time	 med_gas_r	  soleus_r	 tib_ant_r	
2.72765	  0.082251	  0.086080	  0.010894	
2.76091	  0.079662	  0.085611	  0.010901	
2.79418	  0.077018	  0.085440	  0.010918	
2.82744	  0.074243	  0.085679	  0.010885	
2.8607	  0.071611	  0.086398	  0.010736	
2.89397	  0.069628	  0.087491	  0.010536	
2.92723	  0.068611	  0.088827	  0.010398	
2.9605	  0.068627	  0.090449	  0.010380	
2.99376	  0.069583	  0.092262	  0.010453	
3.02702	  0.071337	  0.094070	  0.010597	
3.06029	  0.073518	  0.095744	  0.010790	
3.09355	  0.076009	  0.097391	  0.010986	
3.12682	  0.078547	  0.099135	  0.011128	
3.16008	  0.080730	  0.100765	  0.011193	
3.19334	  0.082331	  0.102047	  0.011237	
3.22661	  0.083388	  0.102743	  0.011275	
3.25987	  0.084005	  0.102815	  0.011283	
3.29314	  0.084246	  0.102373	  0.011259	
3.3264	  0.084124	  0.101815	  0.011282	
3.35966	  0.083711	  0.101304	  0.011364	
3.39293	  0.083330	  0.100744	  0.011444	
3.42619	  0.083457	  0.099920	  0.011465	
3.45946	  0.084063	  0.099037	  0.011454	
3.49272	  0.084672	  0.098546	  0.011406	
3.52598	  0.085014	  0.098623	  0.011290	
3.55925	  0.085163	  0.099214	  0.011084	
3.59251	  0.085272	  0.100113	  0.010844	
3.62578	  0.085326	  0.100846	  0.010627	
3.65904	  0.085125	  0.100998	  0.010459	
3.6923	  0.084417	  0.100805	  0.010327	
3.72557	  0.083659	  0.100853	  0.010249	
3.75883	  0.083392	  0.101400	  0.010232	
3.7921	  0.083749	  0.102368	  0.010265	
3.82536	  0.084983	  0.103648	  0.010341	
3.85862	  0.087927	  0.105254	  0.010488	
3.89189	  0.093005	  0.107250	  0.010685	
3.92515	  0.100006	  0.109319	  0.010841	
3.95842	  0.108088	  0.110764	  0.010874	
3.99168	  0.115932	  0.110930	  0.010834	
4.02494	  0.121575	  0.110051	  0.010778	
4.05821	  0.122950	  0.108818	  0.010707	
4.09147	  0.120043	  0.107433	  0.010616	
4.12474	  0.114518	  0.106163	  0.010553	
4.158	  0.108003	  0.105284	  0.010525	
4.19126	  0.101597	  0.104894	  0.010483	
4.22453	  0.095770	  0.104867	  0.010424	
4.25779	  0.090704	  0.104859	  0.010397	
4.29106	  0.086831	  0.104603	  0.010405	
4.32432	  0.084415	  0.104024	  0.010394	
4.35758	  0.083338	  0.103273	  0.010333	
4.39085	  0.083230	  0.102552	  0.010279	
4.42411	  0.083695	  0.101783	  0.010286	
4.45738	  0.084480	  0.100986	  0.010340	
4.49064	  0.085150	  0.100350	  0.010398	
4.5239	  0.085121	  0.100248	  0.010469	
4.55717	  0.084598	  0.100841	  0.010550	
4.59043	  0.084142	  0.101982	  0.010590	
4.6237	  0.083861	  0.103460	  0.010535	
4.65696	  0.083665	  0.105402	  0.010436	
4.69022	  0.083756	  0.107884	  0.010344	
4.72349	  0.084668	  0.110899	  0.010291	
4.75675	  0.086577	  0.113854	  0.010322	
4.79002	  0.089365	  0.116157	  0.010531	
4.82328	  0.092886	  0.117378	  0.010956	
4.85654	  0.096947	  0.117058	  0.011580	
4.88981	  0.101098	  0.115232	  0.012366	
4.92307	  0.104283	  0.112089	  0.013279	
4.95634	  0.105074	  0.108220	  0.014211	
4.9896	  0.103781	  0.104461	  0.014960	
5.02286	  0.101310	  0.101568	  0.015560	
5.05613	  0.098302	  0.099979	  0.016204	
5.08939	  0.095307	  0.099655	  0.016988	
5.12266	  0.093021	  0.100344	  0.017881	
5.15592	  0.091673	  0.101893	  0.018813	
5.18918	  0.090986	  0.104180	  0.019746	
5.22245	  0.090651	  0.106960	  0.020672	
5.25571	  0.090591	  0.109946	  0.021753	
5.28898	  0.091128	  0.112863	  0.023316	
5.32224	  0.092836	  0.115206	  0.025433	
5.3555	  0.095787	  0.116493	  0.028105	
5.38877	  0.099536	  0.116344	  0.031433	
5.42203	  0.103125	  0.115175	  0.035651	
5.4553	  0.105666	  0.113724	  0.040949	
5.48856	  0.106301	  0.112723	  0.047361	
5.52182	  0.105445	  0.112554	  0.054420	
5.55509	  0.104771	  0.113189	  0.060705	
5.58835	  0.105607	  0.114924	  0.064622	
5.62162	  0.108395	  0.118232	  0.066431	
5.65488	  0.112965	  0.123320	  0.067526	
5.68814	  0.119738	  0.129802	  0.068920	
5.72141	  0.128450	  0.136896	  0.070560	
5.75467	  0.137947	  0.144633	  0.071851	
5.78794	  0.147198	  0.153396	  0.072988	
5.8212	  0.156207	  0.163213	  0.074193	
5.85446	  0.164543	  0.173685	  0.075571	
5.88773	  0.170622	  0.184794	  0.076910	
5.92099	  0.174275	  0.196568	  0.078362	
5.95426	  0.178241	  0.208698	  0.081112	
5.98752	  0.184452	  0.221020	  0.085611	
6.02078	  0.192542	  0.234118	  0.091165	
6.05405	  0.200837	  0.248473	  0.097236	
6.08731	  0.209183	  0.264330	  0.104660	
6.12058	  0.218559	  0.280670	  0.113621	
6.15384	  0.227987	  0.295557	  0.122814	
6.1871	  0.236047	  0.307899	  0.130246	
6.22037	  0.240947	  0.317192	  0.135198	
6.25363	  0.242921	  0.322987	  0.137573	
6.2869	  0.242404	  0.325017	  0.138352	
6.32016	  0.239373	  0.324258	  0.138813	
6.35342	  0.234229	  0.322104	  0.138873	
6.38669	  0.228825	  0.320673	  0.138307	
6.41995	  0.224381	  0.321867	  0.137717	
6.45322	  0.220231	  0.327345	  0.138481	
6.48648	  0.218434	  0.337793	  0.140678	
6.51974	  0.219991	  0.352379	  0.143902	
6.55301	  0.223350	  0.367205	  0.147286	
6.58627	  0.226207	  0.379186	  0.150082	
6.61954	  0.230430	  0.388680	  0.152332	
6.6528	  0.237418	  0.397510	  0.154350	
6.68606	  0.245173	  0.407150	  0.157510	
6.71933	  0.251817	  0.418178	  0.163024	
6.75259	  0.258027	  0.429403	  0.171372	
6.78586	  0.263704	  0.440978	  0.182095	
6.81912	  0.267921	  0.455002	  0.194104	
6.85238	  0.271856	  0.472174	  0.204989	
6.88565	  0.277090	  0.491329	  0.213299	
6.91891	  0.282714	  0.508234	  0.218772	
6.95218	  0.285892	  0.517288	  0.221664	
6.98544	  0.285900	  0.517445	  0.222756	
7.0187	  0.283883	  0.511867	  0.223285	
7.05197	  0.279933	  0.502277	  0.223725	
7.08523	  0.275053	  0.489538	  0.224498	
7.1185	  0.272776	  0.476227	  0.224864	
7.15176	  0.273722	  0.465789	  0.225159	
7.18502	  0.275349	  0.460457	  0.226755	
7.21829	  0.276823	  0.460708	  0.231113	
7.25155	  0.278268	  0.466040	  0.239435	
7.28482	  0.278247	  0.474245	  0.251732	
7.31808	  0.277155	  0.483301	  0.266616	
7.35134	  0.276959	  0.491180	  0.282473	
7.38461	  0.276658	  0.495765	  0.298390	
7.41787	  0.275195	  0.496634	  0.312402	
7.45114	  0.274494	  0.497205	  0.322055	
7.4844	  0.274283	  0.500464	  0.329787	
7.51766	  0.272239	  0.508610	  0.339519	
7.55093	  0.268766	  0.523742	  0.351963	
7.58419	  0.266679	  0.544234	  0.366580	
7.61746	  0.266257	  0.566504	  0.381756	
7.65072	  0.267594	  0.587435	  0.391717	
7.68398	  0.272596	  0.607567	  0.393046	
7.71725	  0.280226	  0.625946	  0.386986	
7.75051	  0.288549	  0.640122	  0.378271	
7.78378	  0.298617	  0.650850	  0.371365	
7.81704	  0.309883	  0.657871	  0.366565	
7.8503	  0.320753	  0.659419	  0.362885	
7.88357	  0.332318	  0.656560	  0.360256	
7.91683	  0.346501	  0.653990	  0.359229	
7.9501	  0.362449	  0.655729	  0.359134	
7.98336	  0.377581	  0.660930	  0.358911	
8.01662	  0.387231	  0.666432	  0.359943	
8.04989	  0.388540	  0.670360	  0.363741	
8.08315	  0.383607	  0.673952	  0.368899	
8.11642	  0.373530	  0.676816	  0.373313	
8.14968	  0.357830	  0.677086	  0.376928	
8.18294	  0.339302	  0.673182	  0.379877	
8.21621	  0.323201	  0.663188	  0.382034	
8.24947	  0.314346	  0.652565	  0.382350	
